<mxfile host="Electron" modified="2023-12-14T05:04:45.396Z" agent="Mozilla/5.0 (Windows NT 10.0; Win64; x64) AppleWebKit/537.36 (KHTML, like Gecko) draw.io/22.0.3 Chrome/114.0.5735.289 Electron/25.8.4 Safari/537.36" etag="6M_BbXN9ErtAQDRKyO-a" version="22.0.3" type="device">
  <diagram name="Page-1" id="92m1mvc6xEqZIoFPmoRs">
    <mxGraphModel dx="574" dy="334" grid="1" gridSize="10" guides="1" tooltips="1" connect="1" arrows="1" fold="1" page="1" pageScale="1" pageWidth="850" pageHeight="1100" math="0" shadow="0">
      <root>
        <mxCell id="0" />
        <mxCell id="1" parent="0" />
        <mxCell id="bg2wSNceriivprjPH62o-16" value="" style="endArrow=none;dashed=1;html=1;strokeWidth=1;rounded=1;opacity=20;" edge="1" parent="1">
          <mxGeometry width="50" height="50" relative="1" as="geometry">
            <mxPoint x="310" y="570" as="sourcePoint" />
            <mxPoint x="310" y="350" as="targetPoint" />
          </mxGeometry>
        </mxCell>
        <mxCell id="bg2wSNceriivprjPH62o-1" value="KL25Z&amp;nbsp;" style="rounded=1;whiteSpace=wrap;html=1;fillColor=#dae8fc;strokeColor=#6c8ebf;" vertex="1" parent="1">
          <mxGeometry x="140" y="390" width="140" height="100" as="geometry" />
        </mxCell>
        <mxCell id="bg2wSNceriivprjPH62o-2" value="&lt;font style=&quot;font-size: 10px;&quot;&gt;Arduino Nano&lt;/font&gt;" style="rounded=1;whiteSpace=wrap;html=1;fillColor=#fff2cc;strokeColor=#d6b656;" vertex="1" parent="1">
          <mxGeometry x="355" y="415" width="70" height="50" as="geometry" />
        </mxCell>
        <mxCell id="bg2wSNceriivprjPH62o-3" value="Host PC" style="whiteSpace=wrap;html=1;aspect=fixed;fillColor=#d5e8d4;strokeColor=#82b366;" vertex="1" parent="1">
          <mxGeometry x="500" y="400" width="80" height="80" as="geometry" />
        </mxCell>
        <mxCell id="bg2wSNceriivprjPH62o-4" value="" style="shape=flexArrow;endArrow=classic;startArrow=classic;html=1;rounded=0;exitX=1;exitY=0.5;exitDx=0;exitDy=0;entryX=0;entryY=0.5;entryDx=0;entryDy=0;width=16.778523489932887;startSize=6.067114093959732;fillColor=#d4d4d4;strokeColor=#9e9e9e;" edge="1" parent="1" target="bg2wSNceriivprjPH62o-2">
          <mxGeometry width="100" height="100" relative="1" as="geometry">
            <mxPoint x="279.9999999999999" y="440" as="sourcePoint" />
            <mxPoint x="340" y="440" as="targetPoint" />
          </mxGeometry>
        </mxCell>
        <mxCell id="bg2wSNceriivprjPH62o-6" value="&lt;font style=&quot;font-size: 6px;&quot;&gt;SPI&lt;/font&gt;" style="edgeLabel;html=1;align=center;verticalAlign=middle;resizable=0;points=[];" vertex="1" connectable="0" parent="bg2wSNceriivprjPH62o-4">
          <mxGeometry x="0.1063" relative="1" as="geometry">
            <mxPoint x="-1" as="offset" />
          </mxGeometry>
        </mxCell>
        <mxCell id="bg2wSNceriivprjPH62o-5" value="" style="shape=flexArrow;endArrow=classic;startArrow=classic;html=1;rounded=0;entryX=0;entryY=0.5;entryDx=0;entryDy=0;exitX=1;exitY=0.5;exitDx=0;exitDy=0;width=16.59090909090909;endSize=7.046511627906977;startSize=6.067114093959732;strokeColor=#9e9e9e;fillColor=#d4d4d4;" edge="1" parent="1" source="bg2wSNceriivprjPH62o-2" target="bg2wSNceriivprjPH62o-3">
          <mxGeometry width="100" height="100" relative="1" as="geometry">
            <mxPoint x="280" y="520" as="sourcePoint" />
            <mxPoint x="380" y="420" as="targetPoint" />
          </mxGeometry>
        </mxCell>
        <mxCell id="bg2wSNceriivprjPH62o-7" value="&lt;font style=&quot;font-size: 6px;&quot;&gt;Serial&lt;/font&gt;" style="edgeLabel;html=1;align=center;verticalAlign=middle;resizable=0;points=[];" vertex="1" connectable="0" parent="bg2wSNceriivprjPH62o-5">
          <mxGeometry x="0.0651" y="-2" relative="1" as="geometry">
            <mxPoint x="-2" y="-4" as="offset" />
          </mxGeometry>
        </mxCell>
        <mxCell id="bg2wSNceriivprjPH62o-9" value="&lt;div style=&quot;&quot;&gt;&lt;i style=&quot;font-size: 6px; background-color: initial; font-weight: bold;&quot;&gt;Debug interface using Arduino Nano&lt;/i&gt;&lt;/div&gt;&lt;font style=&quot;font-size: 6px;&quot;&gt;&lt;div style=&quot;&quot;&gt;&lt;span style=&quot;background-color: initial;&quot;&gt;&amp;gt; Arduino acts as areceiver of the logging data&amp;nbsp;&lt;/span&gt;&lt;/div&gt;&lt;div style=&quot;&quot;&gt;&lt;span style=&quot;background-color: initial;&quot;&gt;from KL25Z&lt;/span&gt;&lt;/div&gt;&lt;div style=&quot;&quot;&gt;&lt;span style=&quot;background-color: initial;&quot;&gt;&amp;gt; The received data is transferred over serial to&amp;nbsp;&lt;/span&gt;&lt;/div&gt;&lt;div style=&quot;&quot;&gt;&lt;span style=&quot;background-color: initial;&quot;&gt;the&amp;nbsp;&lt;/span&gt;&lt;span style=&quot;background-color: initial;&quot;&gt;Host PC&amp;nbsp;&amp;nbsp;&lt;/span&gt;&lt;/div&gt;&lt;/font&gt;" style="text;html=1;align=left;verticalAlign=middle;resizable=0;points=[];autosize=1;strokeColor=none;fillColor=none;" vertex="1" parent="1">
          <mxGeometry x="327" y="485" width="150" height="60" as="geometry" />
        </mxCell>
        <mxCell id="bg2wSNceriivprjPH62o-10" value="&lt;div style=&quot;border-color: var(--border-color);&quot;&gt;&lt;br&gt;&lt;/div&gt;" style="text;html=1;align=left;verticalAlign=middle;resizable=0;points=[];autosize=1;strokeColor=none;fillColor=none;" vertex="1" parent="1">
          <mxGeometry x="140" y="522.5" width="20" height="30" as="geometry" />
        </mxCell>
        <mxCell id="bg2wSNceriivprjPH62o-12" value="&lt;i style=&quot;border-color: var(--border-color); font-size: 6px;&quot;&gt;&lt;b style=&quot;border-color: var(--border-color);&quot;&gt;&lt;br&gt;&lt;/b&gt;&lt;/i&gt;" style="text;html=1;align=left;verticalAlign=middle;resizable=0;points=[];autosize=1;strokeColor=none;fillColor=none;" vertex="1" parent="1">
          <mxGeometry x="110" y="497.5" width="20" height="30" as="geometry" />
        </mxCell>
        <mxCell id="bg2wSNceriivprjPH62o-13" value="&lt;div style=&quot;&quot;&gt;&lt;i style=&quot;border-color: var(--border-color); font-size: 6px;&quot;&gt;&lt;b style=&quot;border-color: var(--border-color);&quot;&gt;Program running on the KL25Z.&amp;nbsp;&lt;/b&gt;&lt;/i&gt;&lt;br&gt;&lt;/div&gt;&lt;font style=&quot;font-size: 6px;&quot;&gt;&lt;div style=&quot;&quot;&gt;&lt;span style=&quot;background-color: initial;&quot;&gt;&amp;gt; MTB logging is enabled and logging into a log buffer&lt;/span&gt;&lt;/div&gt;&lt;div style=&quot;&quot;&gt;&lt;span style=&quot;background-color: initial;&quot;&gt;&amp;nbsp;created by mtb_debug functions.&lt;/span&gt;&lt;/div&gt;&lt;div style=&quot;&quot;&gt;&lt;span style=&quot;background-color: initial;&quot;&gt;&amp;gt; DMA copies the log buffer values to the SPI Data register&lt;/span&gt;&lt;/div&gt;&lt;div style=&quot;&quot;&gt;&lt;span style=&quot;background-color: initial;&quot;&gt;&amp;gt; Once loaded, the data is sent to arduino&amp;nbsp; &amp;nbsp;&lt;/span&gt;&lt;/div&gt;&lt;/font&gt;" style="text;html=1;align=left;verticalAlign=middle;resizable=0;points=[];autosize=1;strokeColor=none;fillColor=none;" vertex="1" parent="1">
          <mxGeometry x="140" y="490" width="180" height="60" as="geometry" />
        </mxCell>
        <mxCell id="bg2wSNceriivprjPH62o-15" value="&lt;div style=&quot;&quot;&gt;&lt;i style=&quot;font-size: 6px; background-color: initial; font-weight: bold;&quot;&gt;Host PC debugging after program execution&lt;/i&gt;&lt;/div&gt;&lt;font style=&quot;font-size: 6px;&quot;&gt;&lt;div style=&quot;&quot;&gt;&lt;span style=&quot;background-color: initial;&quot;&gt;&amp;gt; The received data from serial is logged into a text file&amp;nbsp;&lt;/span&gt;&lt;/div&gt;&lt;div style=&quot;&quot;&gt;&lt;span style=&quot;background-color: initial;&quot;&gt;&amp;gt; Data being a sequence of program counter values&amp;nbsp;&lt;/span&gt;&lt;/div&gt;&lt;div style=&quot;&quot;&gt;&lt;span style=&quot;background-color: initial;&quot;&gt;are then compared to the disassembly using .axf file&amp;nbsp;&lt;/span&gt;&lt;/div&gt;&lt;div style=&quot;&quot;&gt;&lt;span style=&quot;background-color: initial;&quot;&gt;and by cross referencing PC values&lt;/span&gt;&lt;span style=&quot;background-color: initial;&quot;&gt;&amp;nbsp;&lt;/span&gt;&lt;/div&gt;&lt;/font&gt;" style="text;html=1;align=left;verticalAlign=middle;resizable=0;points=[];autosize=1;strokeColor=none;fillColor=none;" vertex="1" parent="1">
          <mxGeometry x="480" y="485" width="170" height="60" as="geometry" />
        </mxCell>
        <mxCell id="bg2wSNceriivprjPH62o-19" value="" style="endArrow=none;dashed=1;html=1;strokeWidth=1;rounded=1;opacity=20;" edge="1" parent="1">
          <mxGeometry width="50" height="50" relative="1" as="geometry">
            <mxPoint x="460" y="570" as="sourcePoint" />
            <mxPoint x="460" y="350" as="targetPoint" />
          </mxGeometry>
        </mxCell>
      </root>
    </mxGraphModel>
  </diagram>
</mxfile>
